<?xml version="1.0" encoding="utf-8"?>
<!-- Generator: Adobe Illustrator 21.1.0, SVG Export Plug-In . SVG Version: 6.00 Build 0)  -->
<svg version="1.1" id="Layer_1" xmlns="http://www.w3.org/2000/svg" xmlns:xlink="http://www.w3.org/1999/xlink" x="0px" y="0px"
	 viewBox="0 0 372 444" style="enable-background:new 0 0 372 444;" xml:space="preserve">
<style type="text/css">
	.st0{fill:#010101;}
	.st1{fill:#FFFFFF;}
	.st2{font-family:'FuturaRoundW01-Bold';}
	.st3{font-size:239.7903px;}
</style>
<g>
	<path class="st0" d="M116.3,37.3c0.4-0.8,0.9-1.4,1.4-1.8c0.6-0.4,1.3-0.6,2.1-0.7c0.9-0.1,2.1-0.1,3.7-0.1h19.4
		c1.6,0,2.8,0,3.8,0.1c0.9,0.1,1.7,0.3,2.2,0.7c0.6,0.4,1,1,1.4,1.9s0.8,2.1,1.3,3.7l29.1,95.5l27.9-95.5l0.7-1.9
		c0.5-2,1.1-3.3,2-3.8s2.8-0.7,5.8-0.7h26.5c3,0,5,0.3,6.1,0.9c1.1,0.6,1.7,1.8,1.7,3.5c0,0.6,0,1.1-0.1,1.5s-0.4,1.5-1.1,3.2
		l-45.4,142.1c-0.5,1.6-0.9,2.8-1.3,3.7c-0.4,0.9-0.9,1.5-1.4,1.9c-0.6,0.4-1.3,0.6-2.1,0.7c-0.9,0.1-2.1,0.1-3.7,0.1h-28.6
		c-3,0-4.9-0.2-5.8-0.7c-0.9-0.5-1.6-1.7-2.2-3.5l-0.5-2.1l-27-84.9l-28.1,85.1c-0.5,1.6-0.9,2.8-1.2,3.5c-0.3,0.8-0.7,1.4-1.3,1.8
		c-0.6,0.4-1.3,0.6-2.2,0.7c-0.9,0.1-2.2,0.1-3.8,0.1H67.3c-3.3,0-5.4-0.3-6.1-0.8c-0.8-0.6-1.7-2.4-2.6-5.6L16.2,43.7
		c-0.3-1.4-0.6-2.4-0.7-3c-0.2-0.6-0.2-1.1-0.2-1.5c0-1.7,0.6-2.9,1.7-3.5s3.2-0.9,6.1-0.9h26.5c3.3,0,5.4,0.3,6.1,0.8
		c0.8,0.6,1.6,2.5,2.4,5.8l25.8,95.3l31.2-95.8C115.5,39.3,115.9,38.1,116.3,37.3z"/>
</g>
<g>
	<path class="st0" d="M347.1,36c-1.1-0.6-3.2-1-6.2-1h-26.5c-3,0-4.9,0.2-5.8,0.7s-1.5,1.7-2,3.8l-0.7,1.9L278,136.9l-1-3.4v59.2
		h16.6c1.6,0,2.8-0.1,3.7-0.1c0.9-0.1,1.6-0.3,2.1-0.7c0.6-0.4,1-1,1.4-1.9s0.8-2.1,1.3-3.7l45.4-142.1c0.6-1.7,1-2.8,1.1-3.2
		s0.1-0.9,0.1-1.5C348.8,37.8,348.2,36.6,347.1,36z"/>
</g>
<polygon class="st0" points="182.1,192.5 280,192.7 321.2,35.1 235,34.8 182.1,191.8 "/>
<text transform="matrix(1 0 0 1 201.9577 194.2669)" class="st1 st2 st3">F</text>
</svg>
